<svg xmlns="http://www.w3.org/2000/svg" viewBox="0 0 1049.18 412.5"><defs><style>.cls-1{fill:#fff;}</style></defs><g id="Layer_2" data-name="Layer 2"><g id="Layer_1-2" data-name="Layer 1"><rect x="403.69" width="645.49" height="177.1"/><path class="cls-1" d="M454.66,105.63V98.75h-7.12V60.91h7.12v-7h23.68v7h7.2v9.92H476v-7H457v11H471.3v9.84H457v11h19v-7h9.51v10h-7.2v6.88Z"/><path class="cls-1" d="M501.3,105.63V60.91h7.12v-7h9.44v7h7.2V74.83h4.72V60.91H537v-7h9.52v7h7v44.72h-9.36V63.87H539.3V77.79h-7.2v21h-9.44v-21h-7.2V63.87h-4.72v41.76Z"/><path class="cls-1" d="M576.42,105.63V98.75H569.3V60.91h7.12v-7H600.1v7h7.2v9.92h-9.52v-7h-19v11h14.32v9.84H578.74v11h19v-7h9.52v10h-7.2v6.88Z"/><path class="cls-1" d="M623.06,105.63V60.91h7.12v-7h23.68v7h7.2V84.67h-7.2v7h-3.44v4h7v9.92H648.1v-7h-7.28v-7H632.5v13.92Zm9.44-23.92h19V63.87h-19Z"/><path class="cls-1" d="M683.94,105.63V98.75h-7.12V60.91h7.12v-7h23.68v7h7.2V77.79H705.3V63.87h-19V95.71h19v-4h-7.12v-7H691V74.83h9.6v6.88h14.24v17h-7.2v6.88Z"/><path class="cls-1" d="M737.7,105.63V98.75h-7.12V60.91h7.12v-7h23.68v7h7.2v9.92h-9.52v-7H740v11h14.32v9.84H740v11h19v-7h9.52v10h-7.2v6.88Z"/><path class="cls-1" d="M784.34,105.63V53.87h9.44v7h7.12v7h7.2V88.75h4.72V53.87h9.52v51.76h-9.52V98.75H805.7v-7h-7.2V70.83h-4.72v34.8Z"/><path class="cls-1" d="M849.86,105.63V63.87h-4.72v7H835.7V60.91h7.12v-7H866.5v7h7.2v9.92h-9.52v-7h-4.72v41.76Z"/><rect y="177.1" width="4.21" height="58.3"/><rect x="23.11" y="177.1" width="4.21" height="58.3"/><rect x="148.19" y="177.1" width="4.21" height="58.3"/><rect x="171.3" y="177.1" width="4.21" height="58.3"/><rect x="232.17" y="177.1" width="4.21" height="58.3"/><rect x="255.28" y="177.1" width="4.21" height="58.3"/><rect x="380.59" y="177.1" width="4.21" height="58.3"/><rect x="403.69" y="177.1" width="4.21" height="58.3"/><rect x="201.73" y="232.28" width="4.21" height="56.66" transform="translate(-56.77 464.45) rotate(-90)"/><rect x="201.73" y="209.17" width="4.21" height="56.66" transform="translate(-33.67 441.34) rotate(-90)"/><rect x="201.73" y="146.66" width="4.21" height="56.66" transform="translate(28.85 378.83) rotate(-90)"/><rect x="201.73" y="123.55" width="4.21" height="56.66" transform="translate(51.96 355.72) rotate(-90)"/><rect x="201.73" y="379.87" width="4.21" height="56.66" transform="translate(-204.36 612.04) rotate(-90)"/><rect x="201.73" y="356.76" width="4.21" height="56.66" transform="translate(-181.26 588.93) rotate(-90)"/><rect x="201.73" y="-0.32" width="4.21" height="56.66" transform="translate(175.82 231.85) rotate(-90)"/><rect x="201.73" y="-23.42" width="4.21" height="56.66" transform="translate(198.93 208.75) rotate(-90)"/><polygon points="232.17 410.31 232.17 235.4 407.9 235.4 232.17 410.31"/><polygon points="175.51 410.31 175.51 235.4 0 235.4 175.51 410.31"/><polygon points="232.17 177.1 232.17 2.8 407.9 177.1 232.17 177.1"/><polygon points="175.51 177.1 175.51 2.8 0 177.1 175.51 177.1"/><text/><rect x="403.69" y="235.4" width="645.49" height="177.1"/><path class="cls-1" d="M452.14,350V305h7v-6.88H483.5V305h7.12v24.48H483.5v6.88H462.3V350Zm10.16-24.64h18.08V309.07H462.3Z"/><path class="cls-1" d="M507.42,350v-6.8h-7V298.11h10.16v41h18.08v-6.88h10.24v11h-7.12V350Z"/><path class="cls-1" d="M548.62,350V311.79h7V305h7v-6.88h10.24V305h7v6.8h7.12V350H576.86V336.35H558.78V350Zm10.16-24.64h18.08v-9.52h-7v-6.8h-4v6.8h-7Z"/><path class="cls-1" d="M606.94,350V322.67h-7v-6.8h-7V298.11H603v13.68h7v6.88h4v-6.88h7V298.11h10.24v17.76h-7.12v6.8h-7V350Z"/><path class="cls-1" d="M646.54,350v-6.8h-7V305h7v-6.88h24.33V305H678v17.68H667.75v-13.6H649.66v30.08h18.09v-2.8h-7v-6.88h-7.13v-10.8h10.25v6.72H678v17.84h-7.12V350Z"/><path class="cls-1" d="M687.75,350V305h7v-6.88h24.32V305h7.12v24.48h-7.12v6.88h-3.45v2.8h7V350H712.54v-6.8h-7.19v-6.88h-7.44V350Zm10.16-24.64H716V309.07H697.91Z"/><path class="cls-1" d="M743,350v-6.8h-7V305h7v-6.88h24.32V305h7.12v38.24h-7.12V350Zm3.12-10.88h18.08V309.07H746.15Z"/><path class="cls-1" d="M791.26,350v-6.8h-7V298.11h10.16v41h18.08v-41h10.25v45.12h-7.13V350Z"/><path class="cls-1" d="M832.46,350V298.11h10.16V305h7v6.8h7.12v20.48h3.92V298.11h10.24V350H860.7v-6.8h-7v-6.88h-7.12V315.87h-3.92V350Z"/><path class="cls-1" d="M880.7,350V298.11H905V305h7v6.8h7.12v24.56h-7.12v6.88h-7V350Zm10.16-10.88h11v-6.88h7v-16.4h-7v-6.8h-11Z"/></g></g></svg>