<svg xmlns="http://www.w3.org/2000/svg" viewBox="0 0 407.9 407.51"><defs><style>.cls-1{fill:#fff;}</style></defs><g id="Layer_2" data-name="Layer 2"><g id="Layer_1-2" data-name="Layer 1"><rect class="cls-1" x="4.21" y="172.19" width="399.48" height="64.62"/><rect class="cls-1" x="175.51" width="56.66" height="407.51"/><rect y="174.29" width="4.21" height="58.3"/><rect x="23.11" y="174.29" width="4.21" height="58.3"/><rect x="148.19" y="174.29" width="4.21" height="58.3"/><rect x="171.3" y="174.29" width="4.21" height="58.3"/><rect x="232.17" y="174.29" width="4.21" height="58.3"/><rect x="255.28" y="174.29" width="4.21" height="58.3"/><rect x="380.59" y="174.29" width="4.21" height="58.3"/><rect x="403.69" y="174.29" width="4.21" height="58.3"/><rect x="201.73" y="229.48" width="4.21" height="56.66" transform="translate(-53.97 461.65) rotate(-90)"/><rect x="201.73" y="206.37" width="4.21" height="56.66" transform="translate(-30.86 438.54) rotate(-90)"/><rect x="201.73" y="143.86" width="4.21" height="56.66" transform="translate(31.65 376.03) rotate(-90)"/><rect x="201.73" y="120.75" width="4.21" height="56.66" transform="translate(54.76 352.92) rotate(-90)"/><rect x="201.73" y="377.07" width="4.21" height="56.66" transform="translate(-201.56 609.24) rotate(-90)"/><rect x="201.73" y="353.96" width="4.21" height="56.66" transform="translate(-178.45 586.13) rotate(-90)"/><rect x="201.73" y="-3.12" width="4.21" height="56.66" transform="translate(178.63 229.05) rotate(-90)"/><rect x="201.73" y="-26.23" width="4.21" height="56.66" transform="translate(201.73 205.94) rotate(-90)"/><polygon points="232.17 407.51 232.17 232.6 407.9 232.6 232.17 407.51"/><polygon points="175.51 407.51 175.51 232.6 0 232.6 175.51 407.51"/><polygon points="232.17 174.29 232.17 0 407.9 174.29 232.17 174.29"/><polygon points="175.51 174.29 175.51 0 0 174.29 175.51 174.29"/></g></g></svg>